<svg xmlns="http://www.w3.org/2000/svg" viewBox="0 0 32 32" fill="none">
  <!-- Background -->
  <rect width="32" height="32" rx="4" fill="#D4A03A"/>

  <!-- Sun -->
  <g transform="translate(16, 10)">
    <!-- Sun center -->
    <circle cx="0" cy="0" r="3" fill="white"/>

    <!-- Sun rays (simplified) -->
    <line x1="0" y1="-5" x2="0" y2="-7" stroke="white" stroke-width="1.5" stroke-linecap="round"/>
    <line x1="3.5" y1="-3.5" x2="5" y2="-5" stroke="white" stroke-width="1.5" stroke-linecap="round"/>
    <line x1="5" y1="0" x2="7" y2="0" stroke="white" stroke-width="1.5" stroke-linecap="round"/>
    <line x1="3.5" y1="3.5" x2="5" y2="5" stroke="white" stroke-width="1.5" stroke-linecap="round"/>
    <line x1="-3.5" y1="-3.5" x2="-5" y2="-5" stroke="white" stroke-width="1.5" stroke-linecap="round"/>
    <line x1="-5" y1="0" x2="-7" y2="0" stroke="white" stroke-width="1.5" stroke-linecap="round"/>
    <line x1="-3.5" y1="3.5" x2="-5" y2="5" stroke="white" stroke-width="1.5" stroke-linecap="round"/>
  </g>

  <!-- Fields (simplified curves) -->
  <path d="M 4 20 Q 10 22, 16 21 T 28 20" fill="none" stroke="white" stroke-width="1.5" stroke-linecap="round"/>
  <path d="M 4 24 Q 10 26, 16 25 T 28 24" fill="none" stroke="white" stroke-width="1.5" stroke-linecap="round"/>
  <path d="M 4 28 Q 10 30, 16 29 T 28 28" fill="none" stroke="white" stroke-width="1.5" stroke-linecap="round"/>
</svg>
